<mxfile host="app.diagrams.net" modified="2023-03-31T19:33:38.028Z" agent="Mozilla/5.0 (Windows NT 10.0; Win64; x64) AppleWebKit/537.36 (KHTML, like Gecko) Chrome/111.0.0.0 Safari/537.36" etag="sN6vEwQ_EfbHJmqgHKz5" version="21.1.1" type="github">
  <diagram name="Page-1" id="gmGeES3E055ZFv6F185J">
    <mxGraphModel dx="574" dy="223" grid="1" gridSize="10" guides="1" tooltips="1" connect="1" arrows="1" fold="1" page="1" pageScale="1" pageWidth="827" pageHeight="1169" math="0" shadow="0">
      <root>
        <mxCell id="0" />
        <mxCell id="1" parent="0" />
        <mxCell id="DtXt9ApUCbJa-oept1Jb-1" value="Flight" style="swimlane;childLayout=stackLayout;horizontal=1;startSize=50;horizontalStack=0;rounded=1;fontSize=14;fontStyle=0;strokeWidth=2;resizeParent=0;resizeLast=1;shadow=0;dashed=0;align=center;arcSize=4;whiteSpace=wrap;html=1;" parent="1" vertex="1">
          <mxGeometry x="80" y="130" width="160" height="120" as="geometry" />
        </mxCell>
        <mxCell id="DtXt9ApUCbJa-oept1Jb-2" value="+FlightNO&amp;nbsp; &amp;nbsp; PK&lt;br&gt;+Departure port&lt;br&gt;+Arrival port" style="align=left;strokeColor=none;fillColor=none;spacingLeft=4;fontSize=12;verticalAlign=top;resizable=0;rotatable=0;part=1;html=1;" parent="DtXt9ApUCbJa-oept1Jb-1" vertex="1">
          <mxGeometry y="50" width="160" height="70" as="geometry" />
        </mxCell>
        <mxCell id="DtXt9ApUCbJa-oept1Jb-3" value="Customer&amp;nbsp;" style="swimlane;childLayout=stackLayout;horizontal=1;startSize=50;horizontalStack=0;rounded=1;fontSize=14;fontStyle=0;strokeWidth=2;resizeParent=0;resizeLast=1;shadow=0;dashed=0;align=center;arcSize=4;whiteSpace=wrap;html=1;" parent="1" vertex="1">
          <mxGeometry x="390" y="525" width="160" height="120" as="geometry" />
        </mxCell>
        <mxCell id="DtXt9ApUCbJa-oept1Jb-4" value="+customerNO&amp;nbsp; &amp;nbsp; &amp;nbsp; PK&lt;br&gt;+name&lt;br&gt;+email&lt;br&gt;+number" style="align=left;strokeColor=none;fillColor=none;spacingLeft=4;fontSize=12;verticalAlign=top;resizable=0;rotatable=0;part=1;html=1;" parent="DtXt9ApUCbJa-oept1Jb-3" vertex="1">
          <mxGeometry y="50" width="160" height="70" as="geometry" />
        </mxCell>
        <mxCell id="DtXt9ApUCbJa-oept1Jb-9" value="" style="shape=table;startSize=0;container=1;collapsible=1;childLayout=tableLayout;fixedRows=1;rowLines=0;fontStyle=0;align=center;resizeLast=1;strokeColor=none;fillColor=none;collapsible=0;whiteSpace=wrap;html=1;" parent="DtXt9ApUCbJa-oept1Jb-3" vertex="1">
          <mxGeometry y="120" width="160" as="geometry" />
        </mxCell>
        <mxCell id="DtXt9ApUCbJa-oept1Jb-10" value="" style="shape=tableRow;horizontal=0;startSize=0;swimlaneHead=0;swimlaneBody=0;fillColor=none;collapsible=0;dropTarget=0;points=[[0,0.5],[1,0.5]];portConstraint=eastwest;top=0;left=0;right=0;bottom=0;" parent="DtXt9ApUCbJa-oept1Jb-9" vertex="1" visible="0">
          <mxGeometry width="180" height="30" as="geometry" />
        </mxCell>
        <mxCell id="DtXt9ApUCbJa-oept1Jb-11" value="" style="shape=partialRectangle;connectable=0;fillColor=none;top=0;left=0;bottom=0;right=0;editable=1;overflow=hidden;" parent="DtXt9ApUCbJa-oept1Jb-10" vertex="1">
          <mxGeometry width="30" height="30" as="geometry">
            <mxRectangle width="30" height="30" as="alternateBounds" />
          </mxGeometry>
        </mxCell>
        <mxCell id="DtXt9ApUCbJa-oept1Jb-12" value="Row" style="shape=partialRectangle;connectable=0;fillColor=none;top=0;left=0;bottom=0;right=0;align=left;spacingLeft=6;overflow=hidden;" parent="DtXt9ApUCbJa-oept1Jb-10" vertex="1">
          <mxGeometry x="30" width="150" height="30" as="geometry">
            <mxRectangle width="150" height="30" as="alternateBounds" />
          </mxGeometry>
        </mxCell>
        <mxCell id="DtXt9ApUCbJa-oept1Jb-13" value="Timetable" style="swimlane;childLayout=stackLayout;horizontal=1;startSize=50;horizontalStack=0;rounded=1;fontSize=14;fontStyle=0;strokeWidth=2;resizeParent=0;resizeLast=1;shadow=0;dashed=0;align=center;arcSize=4;whiteSpace=wrap;html=1;" parent="1" vertex="1">
          <mxGeometry x="70" y="370" width="180" height="120" as="geometry" />
        </mxCell>
        <mxCell id="DtXt9ApUCbJa-oept1Jb-14" value="+FlightNO&lt;span style=&quot;white-space: pre;&quot;&gt; &lt;/span&gt;PK&lt;br&gt;+Weekday&lt;span style=&quot;white-space: pre;&quot;&gt; &lt;/span&gt;PK&lt;br&gt;+departure time&lt;br&gt;+ arrival time" style="align=left;strokeColor=none;fillColor=none;spacingLeft=4;fontSize=12;verticalAlign=top;resizable=0;rotatable=0;part=1;html=1;" parent="DtXt9ApUCbJa-oept1Jb-13" vertex="1">
          <mxGeometry y="50" width="180" height="70" as="geometry" />
        </mxCell>
        <mxCell id="DtXt9ApUCbJa-oept1Jb-17" value="Aircraft" style="swimlane;childLayout=stackLayout;horizontal=1;startSize=50;horizontalStack=0;rounded=1;fontSize=14;fontStyle=0;strokeWidth=2;resizeParent=0;resizeLast=1;shadow=0;dashed=0;align=center;arcSize=4;whiteSpace=wrap;html=1;" parent="1" vertex="1">
          <mxGeometry x="370" y="130" width="160" height="120" as="geometry" />
        </mxCell>
        <mxCell id="DtXt9ApUCbJa-oept1Jb-18" value="+name&lt;span style=&quot;white-space: pre;&quot;&gt; &lt;/span&gt;PK&lt;br&gt;+noSeats" style="align=left;strokeColor=none;fillColor=none;spacingLeft=4;fontSize=12;verticalAlign=top;resizable=0;rotatable=0;part=1;html=1;" parent="DtXt9ApUCbJa-oept1Jb-17" vertex="1">
          <mxGeometry y="50" width="160" height="70" as="geometry" />
        </mxCell>
        <mxCell id="DtXt9ApUCbJa-oept1Jb-19" value="Reservations" style="swimlane;childLayout=stackLayout;horizontal=1;startSize=50;horizontalStack=0;rounded=1;fontSize=14;fontStyle=0;strokeWidth=2;resizeParent=0;resizeLast=1;shadow=0;dashed=0;align=center;arcSize=4;whiteSpace=wrap;html=1;" parent="1" vertex="1">
          <mxGeometry x="390" y="320" width="160" height="120" as="geometry" />
        </mxCell>
        <mxCell id="DtXt9ApUCbJa-oept1Jb-20" value="+reservationNO&lt;span style=&quot;white-space: pre;&quot;&gt; &lt;/span&gt;PK&lt;br&gt;+reservation date&lt;br&gt;+status" style="align=left;strokeColor=none;fillColor=none;spacingLeft=4;fontSize=12;verticalAlign=top;resizable=0;rotatable=0;part=1;html=1;" parent="DtXt9ApUCbJa-oept1Jb-19" vertex="1">
          <mxGeometry y="50" width="160" height="70" as="geometry" />
        </mxCell>
        <mxCell id="DtXt9ApUCbJa-oept1Jb-33" value="" style="endArrow=none;html=1;rounded=0;" parent="DtXt9ApUCbJa-oept1Jb-19" edge="1">
          <mxGeometry relative="1" as="geometry">
            <mxPoint x="79.5" y="120" as="sourcePoint" />
            <mxPoint x="79.5" y="205" as="targetPoint" />
          </mxGeometry>
        </mxCell>
        <mxCell id="DtXt9ApUCbJa-oept1Jb-34" value="*" style="resizable=0;html=1;whiteSpace=wrap;align=left;verticalAlign=bottom;" parent="DtXt9ApUCbJa-oept1Jb-33" connectable="0" vertex="1">
          <mxGeometry x="-1" relative="1" as="geometry">
            <mxPoint x="-9" y="20" as="offset" />
          </mxGeometry>
        </mxCell>
        <mxCell id="DtXt9ApUCbJa-oept1Jb-35" value="*" style="resizable=0;html=1;whiteSpace=wrap;align=right;verticalAlign=bottom;" parent="DtXt9ApUCbJa-oept1Jb-33" connectable="0" vertex="1">
          <mxGeometry x="1" relative="1" as="geometry">
            <mxPoint x="1" as="offset" />
          </mxGeometry>
        </mxCell>
        <mxCell id="DtXt9ApUCbJa-oept1Jb-21" value="" style="endArrow=none;html=1;rounded=0;entryX=0;entryY=0.111;entryDx=0;entryDy=0;entryPerimeter=0;" parent="1" source="DtXt9ApUCbJa-oept1Jb-1" target="DtXt9ApUCbJa-oept1Jb-19" edge="1">
          <mxGeometry relative="1" as="geometry">
            <mxPoint x="330" y="310" as="sourcePoint" />
            <mxPoint x="490" y="310" as="targetPoint" />
          </mxGeometry>
        </mxCell>
        <mxCell id="DtXt9ApUCbJa-oept1Jb-22" value="*" style="resizable=0;html=1;whiteSpace=wrap;align=left;verticalAlign=bottom;" parent="DtXt9ApUCbJa-oept1Jb-21" connectable="0" vertex="1">
          <mxGeometry x="-1" relative="1" as="geometry">
            <mxPoint x="10" y="10" as="offset" />
          </mxGeometry>
        </mxCell>
        <mxCell id="DtXt9ApUCbJa-oept1Jb-23" value="1" style="resizable=0;html=1;whiteSpace=wrap;align=right;verticalAlign=bottom;" parent="DtXt9ApUCbJa-oept1Jb-21" connectable="0" vertex="1">
          <mxGeometry x="1" relative="1" as="geometry">
            <mxPoint x="-10" y="-13" as="offset" />
          </mxGeometry>
        </mxCell>
        <mxCell id="DtXt9ApUCbJa-oept1Jb-26" value="" style="endArrow=none;html=1;rounded=0;" parent="1" source="DtXt9ApUCbJa-oept1Jb-1" target="DtXt9ApUCbJa-oept1Jb-17" edge="1">
          <mxGeometry relative="1" as="geometry">
            <mxPoint x="330" y="310" as="sourcePoint" />
            <mxPoint x="490" y="310" as="targetPoint" />
          </mxGeometry>
        </mxCell>
        <mxCell id="DtXt9ApUCbJa-oept1Jb-27" value="1" style="resizable=0;html=1;whiteSpace=wrap;align=left;verticalAlign=bottom;" parent="DtXt9ApUCbJa-oept1Jb-26" connectable="0" vertex="1">
          <mxGeometry x="-1" relative="1" as="geometry" />
        </mxCell>
        <mxCell id="DtXt9ApUCbJa-oept1Jb-28" value="1" style="resizable=0;html=1;whiteSpace=wrap;align=right;verticalAlign=bottom;" parent="DtXt9ApUCbJa-oept1Jb-26" connectable="0" vertex="1">
          <mxGeometry x="1" relative="1" as="geometry" />
        </mxCell>
        <mxCell id="DtXt9ApUCbJa-oept1Jb-30" value="" style="endArrow=none;html=1;rounded=0;" parent="1" source="DtXt9ApUCbJa-oept1Jb-1" target="DtXt9ApUCbJa-oept1Jb-13" edge="1">
          <mxGeometry relative="1" as="geometry">
            <mxPoint x="330" y="240" as="sourcePoint" />
            <mxPoint x="490" y="240" as="targetPoint" />
          </mxGeometry>
        </mxCell>
        <mxCell id="DtXt9ApUCbJa-oept1Jb-31" value="1" style="resizable=0;html=1;whiteSpace=wrap;align=left;verticalAlign=bottom;" parent="DtXt9ApUCbJa-oept1Jb-30" connectable="0" vertex="1">
          <mxGeometry x="-1" relative="1" as="geometry">
            <mxPoint x="-12" y="20" as="offset" />
          </mxGeometry>
        </mxCell>
        <mxCell id="DtXt9ApUCbJa-oept1Jb-32" value="*" style="resizable=0;html=1;whiteSpace=wrap;align=right;verticalAlign=bottom;" parent="DtXt9ApUCbJa-oept1Jb-30" connectable="0" vertex="1">
          <mxGeometry x="1" relative="1" as="geometry" />
        </mxCell>
      </root>
    </mxGraphModel>
  </diagram>
</mxfile>
